<!--
  SVG Icon Sprite for ScuPlan
  
  Usage Instructions:
  
  1. Include this file in your HTML:
     <object type="image/svg+xml" data="/static/icons/sprite.svg" style="display:none;"></object>
     
  2. Reference icons using <use> elements:
     <svg width="24" height="24">
       <use xlink:href="/static/icons/sprite.svg#icon-water"></use>
     </svg>
     
  3. Or use inline (if sprite is embedded in HTML):
     <svg width="24" height="24">
       <use href="#icon-water"></use>
     </svg>
     
  4. Style icons with CSS:
     svg { fill: currentColor; }
     
  Available Icons (37 total):
  - icon-water, icon-calculator, icon-tasks, icon-flask
  - icon-map-marked-alt, icon-graduation-cap, icon-save, icon-user
  - icon-bars, icon-chart-line, icon-chart-area, icon-map-marker-alt
  - icon-arrows-alt-v, icon-clock, icon-wind, icon-tint
  - icon-compress-arrows-alt, icon-exclamation-triangle, icon-file-pdf
  - icon-qrcode, icon-clipboard-check, icon-clipboard, icon-clipboard-list
  - icon-atom, icon-lungs, icon-folder-open, icon-heart
  - icon-copy, icon-chevron-down, icon-envelope, icon-lightbulb
  - icon-linkedin, icon-shopping-cart, icon-times, icon-trash
  - icon-user-circle, icon-vest
  
  Generated: November 2025
  License: Free for ScuPlan project use
-->
<svg xmlns="http://www.w3.org/2000/svg" style="display:none;">
  
  <!-- Water / Waves -->
  <symbol id="icon-water" viewBox="0 0 24 24">
    <path d="M3 12c0-1.5 1.5-3 3-3s3 1.5 3 3-1.5 3-3 3-3-1.5-3-3zm6 0c0-1.5 1.5-3 3-3s3 1.5 3 3-1.5 3-3 3-3-1.5-3-3zm6 0c0-1.5 1.5-3 3-3s3 1.5 3 3-1.5 3-3 3-3-1.5-3-3zM3 17c0-1.5 1.5-3 3-3s3 1.5 3 3-1.5 3-3 3-3-1.5-3-3zm6 0c0-1.5 1.5-3 3-3s3 1.5 3 3-1.5 3-3 3-3-1.5-3-3zm6 0c0-1.5 1.5-3 3-3s3 1.5 3 3-1.5 3-3 3-3-1.5-3-3z"/>
  </symbol>
  
  <!-- Calculator -->
  <symbol id="icon-calculator" viewBox="0 0 24 24">
    <path d="M6 2h12c1.1 0 2 .9 2 2v16c0 1.1-.9 2-2 2H6c-1.1 0-2-.9-2-2V4c0-1.1.9-2 2-2zm1 3v3h10V5H7zm0 5h3v3H7v-3zm5 0h3v3h-3v-3zm5 0h3v3h-3v-3zm-10 5h3v3H7v-3zm5 0h3v3h-3v-3zm5 0h3v3h-3v-3z"/>
  </symbol>
  
  <!-- Tasks / List -->
  <symbol id="icon-tasks" viewBox="0 0 24 24">
    <path d="M3 5h2v2H3V5zm0 6h2v2H3v-2zm0 6h2v2H3v-2zm4-10h14v2H7V5zm0 6h14v2H7v-2zm0 6h14v2H7v-2z"/>
  </symbol>
  
  <!-- Flask / Laboratory -->
  <symbol id="icon-flask" viewBox="0 0 24 24">
    <path d="M9 2v5l-5 9c-.6 1-1 2.2-1 3.5 0 2.5 2 4.5 4.5 4.5h9c2.5 0 4.5-2 4.5-4.5 0-1.3-.4-2.5-1-3.5l-5-9V2h2V0H7v2h2zm-1 7l2-3.6V4h4v1.4l2 3.6H8z"/>
  </symbol>
  
  <!-- Map with Markers -->
  <symbol id="icon-map-marked-alt" viewBox="0 0 24 24">
    <path d="M12 2C8.1 2 5 5.1 5 9c0 5.3 7 13 7 13s7-7.7 7-13c0-3.9-3.1-7-7-7zm0 9.5c-1.4 0-2.5-1.1-2.5-2.5s1.1-2.5 2.5-2.5 2.5 1.1 2.5 2.5-1.1 2.5-2.5 2.5zM2 12l6 3v7l-6-3v-7zm14 10v-7l6-3v7l-6 3z"/>
  </symbol>
  
  <!-- Graduation Cap -->
  <symbol id="icon-graduation-cap" viewBox="0 0 24 24">
    <path d="M12 3L1 9l4 2.2V17l7 3.8L19 17v-5.8L23 9l-11-6zm0 14.5l-5-2.7V11l5 2.8 5-2.8v3.8l-5 2.7z"/>
  </symbol>
  
  <!-- Save / Floppy Disk -->
  <symbol id="icon-save" viewBox="0 0 24 24">
    <path d="M17 3H5c-1.1 0-2 .9-2 2v14c0 1.1.9 2 2 2h14c1.1 0 2-.9 2-2V7l-4-4zm-5 16c-1.7 0-3-1.3-3-3s1.3-3 3-3 3 1.3 3 3-1.3 3-3 3zm3-10H5V5h10v4z"/>
  </symbol>
  
  <!-- User -->
  <symbol id="icon-user" viewBox="0 0 24 24">
    <path d="M12 12c2.2 0 4-1.8 4-4s-1.8-4-4-4-4 1.8-4 4 1.8 4 4 4zm0 2c-2.7 0-8 1.3-8 4v2h16v-2c0-2.7-5.3-4-8-4z"/>
  </symbol>
  
  <!-- Bars / Menu -->
  <symbol id="icon-bars" viewBox="0 0 24 24">
    <path d="M3 6h18v2H3V6zm0 5h18v2H3v-2zm0 5h18v2H3v-2z"/>
  </symbol>
  
  <!-- Chart Line -->
  <symbol id="icon-chart-line" viewBox="0 0 24 24">
    <path d="M3 3v16h18v2H1V3h2zm4 12l4-5 4 5 6-8v3l-6 8-4-5-4 5V15z"/>
  </symbol>
  
  <!-- Chart Area -->
  <symbol id="icon-chart-area" viewBox="0 0 24 24">
    <path d="M3 3v16h18v2H1V3h2zm18 8l-6 6-4-4-6 6v-8l6-4 4 4 6-6v6z" opacity="0.6"/>
    <path d="M3 13l6-4 4 4 8-6v12H3V13z"/>
  </symbol>
  
  <!-- Map Marker -->
  <symbol id="icon-map-marker-alt" viewBox="0 0 24 24">
    <path d="M12 2C8.1 2 5 5.1 5 9c0 5.3 7 13 7 13s7-7.7 7-13c0-3.9-3.1-7-7-7zm0 9.5c-1.4 0-2.5-1.1-2.5-2.5s1.1-2.5 2.5-2.5 2.5 1.1 2.5 2.5-1.1 2.5-2.5 2.5z"/>
  </symbol>
  
  <!-- Arrows Alt Vertical -->
  <symbol id="icon-arrows-alt-v" viewBox="0 0 24 24">
    <path d="M12 3l-4 4h3v10H8l4 4 4-4h-3V7h3l-4-4z"/>
  </symbol>
  
  <!-- Clock -->
  <symbol id="icon-clock" viewBox="0 0 24 24">
    <path d="M12 2C6.5 2 2 6.5 2 12s4.5 10 10 10 10-4.5 10-10S17.5 2 12 2zm0 18c-4.4 0-8-3.6-8-8s3.6-8 8-8 8 3.6 8 8-3.6 8-8 8zm.5-13H11v6l5.2 3.2.8-1.3-4.5-2.7V7z"/>
  </symbol>
  
  <!-- Wind -->
  <symbol id="icon-wind" viewBox="0 0 24 24">
    <path d="M14 4c-1.1 0-2 .9-2 2h2c0-.6.4-1 1-1s1 .4 1 1-.4 1-1 1H3v2h12c1.7 0 3-1.3 3-3s-1.3-3-3-3zM3 11v2h15c.6 0 1 .4 1 1s-.4 1-1 1-1-.4-1-1h-2c0 1.7 1.3 3 3 3s3-1.3 3-3-1.3-3-3-3H3zm0 6v2h12c.6 0 1 .4 1 1s-.4 1-1 1-1-.4-1-1h-2c0 1.7 1.3 3 3 3s3-1.3 3-3-1.3-3-3-3H3z"/>
  </symbol>
  
  <!-- Tint / Droplet -->
  <symbol id="icon-tint" viewBox="0 0 24 24">
    <path d="M12 2s-7 8.3-7 12c0 3.9 3.1 7 7 7s7-3.1 7-7c0-3.7-7-12-7-12zm0 17c-2.8 0-5-2.2-5-5 0-1.9 2.3-5.5 5-8.9 2.7 3.4 5 7 5 8.9 0 2.8-2.2 5-5 5z"/>
  </symbol>
  
  <!-- Compress Arrows -->
  <symbol id="icon-compress-arrows-alt" viewBox="0 0 24 24">
    <path d="M4 9h3V6h2v5H4V9zm3 6H4v2h5v-5H7v3zm10-9v3h3v2h-5V6h2zm0 9v3h-2v5h5v-2h-3z"/>
  </symbol>
  
  <!-- Exclamation Triangle -->
  <symbol id="icon-exclamation-triangle" viewBox="0 0 24 24">
    <path d="M12 2L1 21h22L12 2zm0 6l-1 7h2l-1-7zm0 9c-.6 0-1 .4-1 1s.4 1 1 1 1-.4 1-1-.4-1-1-1z"/>
  </symbol>
  
  <!-- File PDF -->
  <symbol id="icon-file-pdf" viewBox="0 0 24 24">
    <path d="M14 2H6c-1.1 0-2 .9-2 2v16c0 1.1.9 2 2 2h12c1.1 0 2-.9 2-2V8l-6-6zm-1 7V3.5L18.5 9H13zm-6 3h2v1H7v4h2v-2h1v2h2v-5H7v2zm5 0h2c.6 0 1 .4 1 1v3c0 .6-.4 1-1 1h-2v-5zm0 4h1v-3h-1v3zm3-4h3v1h-2v1h2v1h-2v1h2v1h-3v-5z"/>
  </symbol>
  
  <!-- QR Code -->
  <symbol id="icon-qrcode" viewBox="0 0 24 24">
    <path d="M3 3h8v8H3V3zm2 2v4h4V5H5zm8-2h8v8h-8V3zm2 2v4h4V5h-4zM3 13h8v8H3v-8zm2 2v4h4v-4H5zm10 4h2v2h-2v-2zm-2-2h2v2h-2v-2zm4 0h2v2h-2v-2zm0-2h2v2h-2v-2zm2 0h2v4h-2v-4z"/>
  </symbol>
  
  <!-- Clipboard Check -->
  <symbol id="icon-clipboard-check" viewBox="0 0 24 24">
    <path d="M12 2C11.4 2 11 2.4 11 3H8c-1.1 0-2 .9-2 2v14c0 1.1.9 2 2 2h8c1.1 0 2-.9 2-2V5c0-1.1-.9-2-2-2h-3c0-.6-.4-1-1-1zm-2 8l-2 2-1-1-1.4 1.4L8 14.8l3.4-3.4L10 10z"/>
    <circle cx="12" cy="3" r="1"/>
  </symbol>
  
  <!-- Clipboard -->
  <symbol id="icon-clipboard" viewBox="0 0 24 24">
    <path d="M12 2C11.4 2 11 2.4 11 3H8c-1.1 0-2 .9-2 2v14c0 1.1.9 2 2 2h8c1.1 0 2-.9 2-2V5c0-1.1-.9-2-2-2h-3c0-.6-.4-1-1-1zm0 2c.6 0 1 .4 1 1s-.4 1-1 1-1-.4-1-1 .4-1 1-1zm-4 5h8v2H8V9zm0 4h8v2H8v-2z"/>
  </symbol>
  
  <!-- Clipboard List -->
  <symbol id="icon-clipboard-list" viewBox="0 0 24 24">
    <path d="M12 2C11.4 2 11 2.4 11 3H8c-1.1 0-2 .9-2 2v14c0 1.1.9 2 2 2h8c1.1 0 2-.9 2-2V5c0-1.1-.9-2-2-2h-3c0-.6-.4-1-1-1zm0 2c.6 0 1 .4 1 1s-.4 1-1 1-1-.4-1-1 .4-1 1-1zM8 9h2v2H8V9zm0 4h2v2H8v-2zm0 4h2v2H8v-2zm4-8h4v2h-4V9zm0 4h4v2h-4v-2zm0 4h4v2h-4v-2z"/>
  </symbol>
  
  <!-- Atom -->
  <symbol id="icon-atom" viewBox="0 0 24 24">
    <circle cx="12" cy="12" r="2"/>
    <ellipse cx="12" cy="12" rx="9" ry="3" fill="none" stroke="currentColor" stroke-width="1.5" transform="rotate(45 12 12)"/>
    <ellipse cx="12" cy="12" rx="9" ry="3" fill="none" stroke="currentColor" stroke-width="1.5" transform="rotate(-45 12 12)"/>
  </symbol>
  
  <!-- Lungs -->
  <symbol id="icon-lungs" viewBox="0 0 24 24">
    <path d="M12 3v6m-6 2c-2 0-3 1.5-3 3.5S4 18 6 18c1.5 0 2.5-1 3-2V11c0-1-1-2-3-2zm6 0c2 0 3 1 3 2v5c.5 1 1.5 2 3 2 2 0 3-1.5 3-3.5S20 11 18 11c-2 0-3 1-3 2z"/>
  </symbol>
  
  <!-- Folder Open -->
  <symbol id="icon-folder-open" viewBox="0 0 24 24">
    <path d="M20 6h-8l-2-2H4c-1.1 0-2 .9-2 2v12c0 1.1.9 2 2 2h16c1.1 0 2-.9 2-2V8c0-1.1-.9-2-2-2zm0 12H4V8h16v10z"/>
  </symbol>
  
  <!-- Heart -->
  <symbol id="icon-heart" viewBox="0 0 24 24">
    <path d="M12 21.35l-1.45-1.32C5.4 15.36 2 12.28 2 8.5 2 5.42 4.42 3 7.5 3c1.74 0 3.41.81 4.5 2.09C13.09 3.81 14.76 3 16.5 3 19.58 3 22 5.42 22 8.5c0 3.78-3.4 6.86-8.55 11.54L12 21.35z"/>
  </symbol>
  
  <!-- Copy -->
  <symbol id="icon-copy" viewBox="0 0 24 24">
    <path d="M16 1H4c-1.1 0-2 .9-2 2v14h2V3h12V1zm3 4H8c-1.1 0-2 .9-2 2v14c0 1.1.9 2 2 2h11c1.1 0 2-.9 2-2V7c0-1.1-.9-2-2-2zm0 16H8V7h11v14z"/>
  </symbol>
  
  <!-- Chevron Down -->
  <symbol id="icon-chevron-down" viewBox="0 0 24 24">
    <path d="M7 10l5 5 5-5H7z"/>
  </symbol>
  
  <!-- Envelope -->
  <symbol id="icon-envelope" viewBox="0 0 24 24">
    <path d="M20 4H4c-1.1 0-2 .9-2 2v12c0 1.1.9 2 2 2h16c1.1 0 2-.9 2-2V6c0-1.1-.9-2-2-2zm0 4l-8 5-8-5V6l8 5 8-5v2z"/>
  </symbol>
  
  <!-- Lightbulb -->
  <symbol id="icon-lightbulb" viewBox="0 0 24 24">
    <path d="M12 2C8.1 2 5 5.1 5 9c0 2.4 1.2 4.5 3 5.7V18c0 1.1.9 2 2 2h4c1.1 0 2-.9 2-2v-3.3c1.8-1.3 3-3.4 3-5.7 0-3.9-3.1-7-7-7zm2 16h-4v-1h4v1zm0-3h-4v-1c-1.7-1.2-3-2.9-3-5 0-2.8 2.2-5 5-5s5 2.2 5 5c0 2.1-1.3 3.8-3 5v1z"/>
  </symbol>
  
  <!-- LinkedIn -->
  <symbol id="icon-linkedin" viewBox="0 0 24 24">
    <path d="M19 3H5c-1.1 0-2 .9-2 2v14c0 1.1.9 2 2 2h14c1.1 0 2-.9 2-2V5c0-1.1-.9-2-2-2zM8.3 18H6V9.8h2.3V18zM7.2 8.7c-.7 0-1.3-.6-1.3-1.3s.6-1.3 1.3-1.3 1.3.6 1.3 1.3-.6 1.3-1.3 1.3zM18 18h-2.3v-4c0-.9 0-2-1.2-2s-1.4 1-1.4 1.9V18h-2.3V9.8h2.2v1.1c.3-.6 1-1.2 2.1-1.2 2.3 0 2.7 1.5 2.7 3.5V18z"/>
  </symbol>
  
  <!-- Shopping Cart -->
  <symbol id="icon-shopping-cart" viewBox="0 0 24 24">
    <path d="M7 18c-1.1 0-2 .9-2 2s.9 2 2 2 2-.9 2-2-.9-2-2-2zm10 0c-1.1 0-2 .9-2 2s.9 2 2 2 2-.9 2-2-.9-2-2-2zm-9.8-3.2l-.2-1.2L19 9.3 17.5 3H6.2L5.5 1H1v2h2.8L6 14.4c-.8.5-1.3 1.4-1.3 2.4 0 1.7 1.3 3 3 3h12v-2H7.7c-.1 0-.2-.1-.2-.2z"/>
  </symbol>
  
  <!-- Times / Close -->
  <symbol id="icon-times" viewBox="0 0 24 24">
    <path d="M19 6.4L17.6 5 12 10.6 6.4 5 5 6.4l5.6 5.6L5 17.6 6.4 19l5.6-5.6 5.6 5.6 1.4-1.4-5.6-5.6L19 6.4z"/>
  </symbol>
  
  <!-- Trash -->
  <symbol id="icon-trash" viewBox="0 0 24 24">
    <path d="M6 19c0 1.1.9 2 2 2h8c1.1 0 2-.9 2-2V7H6v12zM19 4h-3.5l-1-1h-5l-1 1H5v2h14V4z"/>
  </symbol>
  
  <!-- User Circle -->
  <symbol id="icon-user-circle" viewBox="0 0 24 24">
    <path d="M12 2C6.5 2 2 6.5 2 12s4.5 10 10 10 10-4.5 10-10S17.5 2 12 2zm0 3c1.7 0 3 1.3 3 3s-1.3 3-3 3-3-1.3-3-3 1.3-3 3-3zm0 14.2c-2.5 0-4.7-1.3-6-3.2 0-2 4-3.1 6-3.1s6 1.1 6 3.1c-1.3 1.9-3.5 3.2-6 3.2z"/>
  </symbol>
  
  <!-- Vest / Life Jacket -->
  <symbol id="icon-vest" viewBox="0 0 24 24">
    <path d="M12 2L8 6v16h8V6l-4-4zm0 3l2 2v13h-4V7l2-2zm-6 1v14l-4 2V6l4 2zm12 0l4-2v16l-4-2V6z"/>
  </symbol>

</svg>
